<svg id="Layer_1" enable-background="new 0 0 512 512" height="512" viewBox="0 0 512 512" width="512" xmlns="http://www.w3.org/2000/svg"><g><circle cx="502" cy="234" r="10"/><path d="m508.997 123.999c-1.834-1.833-4.334-2.999-6.997-2.999 0 0-491.991 0-492 0-5.313 0-10 4.485-10 10v250c0 5.449 4.551 10 10 10h492c5.451 0 10-4.551 10-10v-102c0-5.521-4.49-10-10-10s-10 4.479-10 10v92h-472v-230h472v48c0 5.51 4.49 10 10 10s10-4.49 10-10c0 0 0-57.846 0-58 0-2.668-1.169-5.168-3.003-7.001z"/><path d="m310 226h-260c-5.523 0-10 4.478-10 10s4.477 10 10 10h260c5.523 0 10-4.478 10-10s-4.477-10-10-10z"/><path d="m280 266h-230c-5.523 0-10 4.478-10 10s4.477 10 10 10h230c5.523 0 10-4.478 10-10s-4.477-10-10-10z"/><path d="m50 186h60c5.523 0 10-4.478 10-10s-4.477-10-10-10h-60c-5.523 0-10 4.478-10 10s4.477 10 10 10z"/><path d="m411.998 226h30c5.523 0 10-4.478 10-10s-4.477-10-10-10h-15v-10c0-5.522-4.477-10-10-10s-10 4.478-10 10v10.425c-14.169 2.388-25 14.737-25 29.575 0 16.542 13.458 30 30 30h10c5.514 0 10 4.486 10 10s-4.486 10-10 10h-30c-5.523 0-10 4.478-10 10s4.477 10 10 10h15v10c0 5.522 4.477 10 10 10s10-4.478 10-10v-10.425c14.169-2.388 25-14.737 25-29.575 0-16.542-13.458-30-30-30h-10c-5.514 0-10-4.486-10-10s4.485-10 10-10z"/></g></svg>