<svg id="Capa_1" data-name="Capa 1" xmlns="http://www.w3.org/2000/svg" xmlns:xlink="http://www.w3.org/1999/xlink" viewBox="0 0 1548.54 559.97"><defs><style>.cls-1{fill:url(#linear-gradient);}.cls-2{fill:#2d3436;stroke:#2d3436;}.cls-2,.cls-3{stroke-miterlimit:10;stroke-width:5px;}.cls-3{fill:#fff;stroke:#fff;}</style><linearGradient id="linear-gradient" x1="1478.94" y1="448.72" x2="889.93" y2="108.65" gradientUnits="userSpaceOnUse"><stop offset="0" stop-color="#78f388"/><stop offset="0.19" stop-color="#54ffa2"/><stop offset="0.73" stop-color="#19e1e3"/><stop offset="1" stop-color="#00d4ff"/></linearGradient></defs><title>CodefiliaSVG</title><path class="cls-1" d="M1497.89,410.49c0,13.14-13.85,23.78-21.21,23.78H894.32c-7.36,0-25-10.64-25-23.78v-261c0-13.13,14.64-23.78,22-23.78h584c7.36,0,22.57,3.84,22.57,17Z"/><path class="cls-2" d="M127.19,381.31a101.06,101.06,0,0,1-39.3-38.25q-14.25-24.45-14.25-54.75t14.25-54.75a100.78,100.78,0,0,1,39.45-38.25q25.2-13.8,56.4-13.8a116.84,116.84,0,0,1,43.2,7.8,89.54,89.54,0,0,1,33.6,22.8l-14.1,14.1q-24.6-24.9-62.1-24.9-24.9,0-45.3,11.4a83.3,83.3,0,0,0-31.95,31.2q-11.55,19.8-11.55,44.4t11.55,44.4A83.3,83.3,0,0,0,139,363.91q20.4,11.4,45.3,11.4,37.8,0,62.1-25.2l14.1,14.1a90.82,90.82,0,0,1-33.75,23,116,116,0,0,1-43.35,7.95Q152.24,395.11,127.19,381.31Z"/><path class="cls-2" d="M319.94,384.46a75.48,75.48,0,0,1-28.8-28.65q-10.5-18.3-10.5-41.4t10.5-41.4a74.41,74.41,0,0,1,28.8-28.5q18.3-10.2,41.1-10.2t41.1,10.2A73.36,73.36,0,0,1,430.79,273q10.35,18.3,10.35,41.4t-10.35,41.4a74.41,74.41,0,0,1-28.65,28.65q-18.3,10.35-41.1,10.35T319.94,384.46Zm71.25-16.2A53.33,53.33,0,0,0,412,346.51q7.5-14.1,7.5-32.1t-7.5-32.1a53.33,53.33,0,0,0-20.85-21.75,63.24,63.24,0,0,0-60.3,0,54.33,54.33,0,0,0-21,21.75q-7.65,14.1-7.65,32.1t7.65,32.1a54.33,54.33,0,0,0,21,21.75,63.24,63.24,0,0,0,60.3,0Z"/><path class="cls-2" d="M628.64,170.71v222.6h-20.4v-31.2a65,65,0,0,1-25.35,24.3q-15.75,8.4-35.55,8.4a80.1,80.1,0,0,1-40.2-10.2,72.9,72.9,0,0,1-28.2-28.5q-10.2-18.3-10.2-41.7t10.2-41.7a71.87,71.87,0,0,1,28.2-28.35q18-10.05,40.2-10.05,19.2,0,34.65,7.95a65.66,65.66,0,0,1,25.35,23.25v-94.8ZM579,368.26a54.33,54.33,0,0,0,21-21.75q7.65-14.1,7.65-32.1T600,282.31a54.33,54.33,0,0,0-21-21.75,62.65,62.65,0,0,0-60,0,54.33,54.33,0,0,0-21,21.75q-7.65,14.1-7.65,32.1t7.65,32.1a54.33,54.33,0,0,0,21,21.75,62.65,62.65,0,0,0,60,0Z"/><path class="cls-2" d="M825.44,321h-132q1.8,24.6,18.9,39.75t43.2,15.15a68.14,68.14,0,0,0,27-5.25,59,59,0,0,0,21.3-15.45l12,13.8a67.65,67.65,0,0,1-26.25,19.2,88.78,88.78,0,0,1-34.65,6.6q-24.3,0-43.05-10.35a74.62,74.62,0,0,1-29.25-28.65q-10.51-18.3-10.5-41.4T682.19,273a72.77,72.77,0,0,1,27.6-28.5q17.55-10.2,39.45-10.2t39.3,10.2a72.38,72.38,0,0,1,27.3,28.35q9.9,18.15,9.9,41.55ZM711,267.16q-15.47,14.55-17.55,37.95h111.9q-2.1-23.4-17.55-37.95t-38.55-14.55Q726.44,252.61,711,267.16Z"/><path class="cls-3" d="M979.18,194.71q-7,7.5-7,22.2v18.6h48.6v18h-48v139.8h-21.3V253.51h-28.2v-18h28.2V216q0-21.6,12.45-34.2t35.25-12.6a59.57,59.57,0,0,1,17.4,2.55,39.31,39.31,0,0,1,14.1,7.35l-7.2,15.9q-9.3-7.8-23.4-7.8Q986.23,187.21,979.18,194.71Zm94.05,1.8a14.73,14.73,0,0,1-4.5-10.8,14.39,14.39,0,0,1,4.5-10.5,15.08,15.08,0,0,1,11.1-4.5,15.35,15.35,0,0,1,11.1,4.35,13.91,13.91,0,0,1,4.5,10.35,15.7,15.7,0,0,1-26.7,11.1Zm.3,39h21.3v157.8h-21.3Z"/><path class="cls-3" d="M1154.23,170.71h21.3v222.6h-21.3Z"/><path class="cls-3" d="M1234.63,196.51a14.73,14.73,0,0,1-4.5-10.8,14.39,14.39,0,0,1,4.5-10.5,15.07,15.07,0,0,1,11.1-4.5,15.37,15.37,0,0,1,11.1,4.35,13.91,13.91,0,0,1,4.5,10.35,15.7,15.7,0,0,1-26.7,11.1Zm.3,39h21.3v157.8h-21.3Z"/><path class="cls-3" d="M1418.23,249.76q16.49,15.45,16.5,45.75v97.8h-20.4v-24.6a48.9,48.9,0,0,1-21.15,19.2q-14,6.9-33.16,6.9-26.4,0-42-12.6t-15.59-33.3q0-20.1,14.55-32.4t46.35-12.3h50.1v-9.6q0-20.4-11.41-31.05t-33.29-10.65a84.57,84.57,0,0,0-28.8,5,72.47,72.47,0,0,0-23.7,13.65l-9.6-15.9a84.94,84.94,0,0,1,28.8-15.75,112,112,0,0,1,35.4-5.55Q1401.72,234.31,1418.23,249.76Zm-24,120q12.88-8.25,19.2-23.85v-25.8h-49.5q-40.5,0-40.5,28.2,0,13.8,10.5,21.75t29.4,7.95Q1381.33,378,1394.23,369.76Z"/></svg>