<svg id="Capa_1" data-name="Capa 1" xmlns="http://www.w3.org/2000/svg" viewBox="0 0 1963.94 1126.39"><defs><style>.cls-1{fill:#fff;}.cls-2,.cls-4{fill:#191919;}.cls-2{stroke:#191919;}.cls-2,.cls-3{stroke-miterlimit:10;}.cls-3{fill:#d90c44;stroke:#d90c44;}.cls-4{font-size:206.66px;font-family:LeelawadeeUI-Semilight, Leelawadee UI;}</style></defs><title>JAR_SVG</title><rect class="cls-1" x="9.84" y="1.39" width="1954.1" height="1117.91"/><path class="cls-2" d="M649.6,727.66l303.63-634s14.18-30.32,46.93-31.37a58.57,58.57,0,0,1,52.41,27.45l162.19,351.84s27.16,48.95-18.27,80.26c-48.56,33.45-81-16.44-81-16.44L1012.69,323.87s-6.52-12.06-12.53-13.68c-9.38-2.53-16.65,13.33-16.65,13.33L758,777.7s-23,48.8-72.66,25.1C626.05,774.53,649.6,727.66,649.6,727.66Z"/><path class="cls-3" d="M1340.49,747.44c0,33.4-28.47,60.48-63.58,60.48s-63.58-27.08-63.58-60.48S1241.79,687,1276.91,687,1340.49,714,1340.49,747.44Z"/><path class="cls-2" d="M1432.82,481.57v284s0,48.69,59.41,48.71c59.59,0,59.42-46.35,59.42-46.35V481.57s0-54.15-59.42-54.12S1432.82,481.57,1432.82,481.57Z"/><path class="cls-2" d="M1884.55,718.59S1749,516.85,1744.61,508.93c-3.31-5.17-134.52,5.59-134.52,5.59l177.22,274.87s29.49,44.14,73.06,12.9C1914.51,763.46,1884.55,718.59,1884.55,718.59Z"/><path class="cls-2" d="M1721.28,72.57l-241.78-.2s-46.68,1.67-46.68,59.47c0,63.54,53.22,63,53.22,63h142.64c13.62,0,143.2.06,143.2,112.62,0,119.23-121,120-121,120H1497.21l54.44,107.21s1.44-25.92,29.87-26.9,32.55,12.5,37.9,21.23c20.6,33.6,133.22,1.64,124.76-21-2.15-5.72,4-6.34,4-6.34s135.4-5.74,135.4-204.14C1883.56,72.36,1721.28,72.57,1721.28,72.57Z"/><path class="cls-2" d="M131.49,71.32H508.42s51.09-4.7,51.09,62.37c0,65.3-47.4,62.94-47.4,62.94H131.49S81,196.63,81,134,131.49,71.32,131.49,71.32Z"/><path class="cls-2" d="M82.67,613.43l44.63,87.64,71.93,5V613.43s0-53.08-58.29-53.08C82.44,560.35,82.67,613.43,82.67,613.43Z"/><path class="cls-2" d="M441.25,461.84V614.06H557.81v-156s0-47.45-58.28-47.45S441.25,461.84,441.25,461.84Z"/><path class="cls-2" d="M312.84,682.61c127.75,0,128.79-71,128.79-71H557.15s0,201.81-237.59,201.81S82,612.17,82,612.17L198.57,610S207.82,682.61,312.84,682.61Z"/><text class="cls-4" transform="translate(82.67 1076.85) scale(1.02 1)"><tspan xml:space="preserve">S   T   U   D   I   O  S</tspan></text></svg>